<svg xmlns="http://www.w3.org/2000/svg" viewBox="0 0 1230 354" role="img" aria-label="egoo">
  <title>egoo</title>
  <g transform="translate(0,354) scale(0.1,-0.1)" stroke="none">
    <path fill="#fe7f07" d="M695 3230 c-102 -4 -125 -8 -150 -27 -73 -52 -112 -131 -102 -208 10 -70 37 -110 105 -156 l43 -29 1218 0 1218 0 55 53 c77 73 89 120 62 232 -11 45 -48 89 -98 113 l-44 23 -1094 2 c-601 1 -1147 0 -1213 -3z"/>
    <g fill="#181714">
      <path d="M4195 2623 c-11 -3 -24 -9 -29 -14 -6 -5 -42 -9 -81 -9 -47 0 -78 -5 -91 -15 -10 -8 -31 -15 -45 -15 -15 0 -29 -7 -33 -15 -3 -8 -14 -15 -24 -15 -11 0 -25 -7 -32 -15 -7 -8 -20 -15 -30 -15 -20 0 -180 -164 -180 -184 0 -8 -7 -19 -15 -26 -8 -7 -15 -20 -15 -30 0 -10 -7 -23 -15 -30 -8 -7 -15 -29 -15 -50 0 -24 -5 -40 -15 -44 -23 -8 -23 -764 0 -772 10 -4 15 -20 15 -44 0 -21 7 -43 15 -50 8 -7 15 -20 15 -30 0 -10 7 -23 15 -30 8 -7 15 -19 15 -28 0 -21 160 -182 181 -182 9 0 22 -7 29 -15 7 -8 21 -15 32 -15 10 0 21 -7 24 -15 4 -8 18 -15 33 -15 15 0 35 -6 46 -14 13 -8 65 -15 140 -19 140 -8 1279 -8 1408 0 l87 5 0 -131 c0 -130 0 -132 -24 -141 -13 -5 -27 -14 -31 -19 -4 -8 -234 -11 -744 -11 -644 0 -740 -2 -751 -15 -7 -8 -23 -15 -36 -15 -14 0 -42 -19 -74 -50 -55 -56 -58 -67 -51 -205 3 -52 7 -64 39 -97 20 -21 44 -38 53 -38 9 0 22 -7 29 -15 19 -22 1635 -22 1664 0 11 8 32 15 47 15 15 0 29 7 33 15 3 8 14 15 24 15 11 0 25 7 32 15 7 8 20 15 29 15 30 0 120 100 150 167 5 11 15 24 20 28 6 3 11 19 11 34 0 16 7 34 15 41 11 9 15 32 15 79 0 40 5 72 13 80 19 19 20 1272 1 1320 -8 18 -14 62 -14 98 0 47 -4 65 -15 69 -9 4 -15 19 -15 39 0 18 -7 38 -15 45 -8 7 -15 20 -15 29 0 34 -181 221 -213 221 -9 0 -20 6 -24 13 -12 18 -71 47 -98 47 -12 0 -25 7 -29 15 -4 11 -22 15 -71 15 -39 0 -78 6 -95 15 -26 13 -113 15 -652 14 -343 -1 -632 -4 -643 -6z m1269 -458 c11 -8 29 -15 41 -15 12 0 42 -22 72 -52 l51 -53 3 -170 c1 -93 2 -220 1 -281 l-2 -110 -51 -57 c-42 -47 -56 -57 -83 -57 -18 0 -47 -7 -63 -15 -27 -13 -110 -15 -624 -13 -619 3 -607 2 -694 46 -43 21 -75 53 -75 73 0 9 -7 22 -15 29 -13 10 -15 54 -15 275 0 224 2 264 15 269 8 3 15 14 15 25 0 24 79 91 107 91 10 0 28 7 39 15 29 22 1249 22 1278 0z"/>
      <path d="M7080 2615 c-15 -8 -53 -14 -91 -15 -47 0 -70 -5 -79 -15 -7 -8 -25 -15 -40 -15 -15 0 -33 -7 -40 -15 -7 -8 -20 -15 -30 -15 -10 0 -23 -7 -30 -15 -7 -8 -18 -15 -25 -15 -19 0 -155 -129 -155 -147 0 -8 -13 -32 -30 -53 -16 -21 -30 -47 -30 -58 0 -11 -7 -25 -15 -32 -8 -7 -15 -29 -15 -50 0 -21 -7 -43 -15 -50 -13 -11 -15 -63 -15 -362 0 -301 2 -349 15 -354 10 -4 15 -21 15 -54 0 -30 6 -52 15 -60 8 -7 15 -20 15 -30 0 -23 60 -113 108 -163 41 -43 146 -117 166 -117 8 0 19 -7 26 -15 7 -8 25 -15 40 -15 15 0 33 -6 39 -14 17 -20 211 -27 816 -27 605 -1 834 7 842 27 3 8 20 14 38 14 18 0 38 7 45 15 7 8 18 15 25 15 14 0 165 108 165 118 0 4 20 30 45 59 25 28 45 58 45 66 0 8 7 20 15 27 8 7 15 22 15 34 0 12 7 31 15 42 8 10 15 39 15 64 0 25 7 54 15 64 22 29 22 578 0 620 -8 15 -15 47 -15 71 0 26 -6 47 -15 55 -8 7 -15 23 -15 35 0 12 -7 28 -15 35 -8 7 -15 20 -15 29 0 10 -11 28 -25 41 -14 13 -37 43 -51 67 -13 24 -29 43 -35 43 -6 0 -37 20 -69 45 -32 25 -65 45 -73 45 -8 0 -17 7 -21 15 -3 9 -18 15 -39 15 -19 0 -40 7 -47 15 -8 10 -31 15 -70 15 -32 0 -74 7 -93 15 -53 22 -1289 22 -1327 0z m1296 -450 c10 -8 31 -15 47 -15 15 0 27 -5 27 -10 0 -6 11 -15 25 -20 14 -5 30 -21 35 -35 5 -14 14 -25 20 -25 5 0 10 -17 10 -38 0 -21 6 -44 13 -50 9 -10 12 -66 12 -212 0 -146 -3 -202 -12 -212 -7 -6 -13 -26 -13 -42 0 -43 -92 -136 -135 -136 -16 0 -39 -7 -49 -15 -30 -22 -1212 -22 -1242 0 -10 8 -31 15 -45 15 -15 0 -29 7 -33 15 -3 8 -15 15 -26 15 -12 0 -24 9 -30 24 -5 13 -14 27 -19 31 -6 3 -11 14 -11 24 0 10 -7 24 -15 31 -22 18 -22 475 0 504 8 11 15 26 15 33 0 19 41 73 56 73 6 0 17 7 24 15 7 8 23 15 35 15 12 0 28 7 35 15 19 22 1246 23 1276 0z"/>
      <path d="M9995 2615 c-22 -8 -66 -15 -98 -15 -42 0 -59 -4 -63 -15 -4 -10 -20 -15 -45 -15 -26 0 -42 -5 -45 -15 -4 -8 -17 -15 -30 -15 -12 0 -27 -6 -31 -13 -4 -7 -34 -33 -65 -56 -32 -24 -58 -46 -58 -50 0 -3 -20 -29 -45 -58 -25 -28 -45 -60 -45 -71 0 -11 -7 -22 -15 -26 -9 -3 -15 -18 -15 -39 0 -19 -7 -40 -15 -47 -10 -8 -15 -31 -15 -64 -1 -28 -7 -62 -15 -76 -21 -37 -21 -523 0 -564 8 -15 15 -50 15 -76 0 -30 6 -52 15 -60 8 -7 15 -25 15 -40 0 -15 7 -33 15 -40 8 -7 15 -19 15 -27 0 -8 13 -32 29 -52 15 -20 33 -46 40 -58 14 -27 164 -143 184 -143 8 0 20 -7 27 -15 7 -8 27 -15 45 -15 20 0 35 -6 39 -15 4 -12 23 -15 83 -15 43 0 92 -4 108 -8 17 -5 348 -6 737 -2 648 5 708 7 726 23 10 9 30 17 44 17 14 0 31 7 38 15 7 8 20 15 30 15 10 0 23 7 30 15 7 8 20 15 29 15 21 0 181 160 181 181 0 9 7 22 15 29 8 7 15 23 15 35 0 13 7 25 15 29 10 3 15 19 15 45 0 25 5 41 15 45 13 5 15 57 15 386 0 329 -2 381 -15 386 -10 4 -15 20 -15 45 0 26 -5 42 -15 45 -8 4 -15 16 -15 29 0 12 -7 28 -15 35 -8 7 -15 20 -15 29 0 21 -160 181 -181 181 -9 0 -22 7 -29 15 -7 8 -21 15 -32 15 -10 0 -21 7 -24 15 -4 8 -18 15 -34 15 -15 0 -33 6 -39 14 -23 28 -376 44 -981 45 -398 0 -492 -2 -525 -14z m1315 -450 c7 -8 24 -15 38 -15 30 0 102 -64 102 -91 0 -9 7 -22 15 -29 13 -10 15 -53 15 -270 0 -217 -2 -260 -15 -270 -8 -7 -15 -19 -15 -28 0 -19 -39 -62 -56 -62 -6 0 -17 -7 -24 -15 -7 -8 -24 -15 -39 -15 -14 0 -35 -7 -45 -15 -29 -22 -1208 -22 -1246 0 -14 8 -36 14 -50 15 -17 0 -43 17 -75 49 -62 61 -64 73 -74 336 -6 159 -5 204 6 220 7 11 13 31 13 45 0 32 93 130 124 130 12 0 30 7 40 15 30 23 1267 22 1286 0z"/>
      <path d="M800 2465 c-14 -8 -48 -14 -76 -15 -33 0 -56 -5 -64 -15 -7 -8 -21 -15 -32 -15 -11 0 -37 -13 -58 -30 -21 -16 -41 -30 -45 -30 -12 0 -85 -77 -85 -89 0 -6 -14 -30 -30 -53 -17 -22 -30 -53 -30 -68 0 -15 -7 -33 -15 -40 -22 -18 -22 -696 0 -726 8 -10 15 -33 15 -50 0 -17 7 -37 15 -44 8 -7 15 -23 15 -36 0 -13 6 -27 13 -31 13 -9 31 -36 46 -68 20 -44 181 -175 215 -175 8 0 19 -7 26 -15 7 -8 25 -15 40 -15 15 0 33 -6 39 -14 18 -22 146 -25 1126 -31 926 -5 1098 0 1135 30 8 7 24 15 34 16 11 2 30 24 43 49 13 25 28 49 33 54 6 6 10 36 10 68 0 67 -21 107 -93 176 l-45 44 -1013 -1 c-884 -1 -1016 1 -1033 14 -11 8 -31 15 -44 15 -35 0 -112 65 -112 95 0 12 -7 25 -15 29 -13 5 -15 40 -15 235 l0 230 44 35 43 36 1074 0 1075 0 52 53 c29 29 52 58 52 64 0 6 7 16 15 23 17 14 22 135 6 144 -5 4 -19 27 -31 52 -13 25 -33 49 -45 54 -13 5 -26 14 -30 19 -3 6 -16 11 -28 11 -12 0 -31 7 -41 15 -29 22 -2148 22 -2186 0z"/>
    </g>
  </g>
</svg>
